<svg width="112" height="26" viewBox="0 0 112 26" fill="none" xmlns="http://www.w3.org/2000/svg">
<path d="M19.9963 25.5585H12.6901L10.021 20.2078L7.37701 25.5585H0.187744L6.48985 13.2929L0.526769 1.72614H7.77449L19.9963 25.5585Z" fill="#4A4A4A"/>
<path d="M31.4165 1.72437L20.6065 24.2849L17.1464 17.5565L24.6613 1.72437H31.4165Z" fill="#4A4A4A"/>
<path d="M33.9218 25.6048V1.74496L40.0545 1.69037V20.2537H45.8992L48.3136 25.6048H33.9218ZM71.4702 13.5785C71.4702 15.2287 71.1702 16.772 70.5791 18.2086C69.9862 19.6499 69.1269 20.9433 67.9845 22.0751C66.8421 23.2071 65.5268 24.0697 64.0533 24.6813C62.5816 25.2921 61.0499 25.5945 59.4669 25.5945C57.8577 25.5945 56.3154 25.2921 54.849 24.6813C53.3807 24.0697 52.0992 23.1938 50.9754 22.0751C49.8249 20.9299 48.9402 19.6455 48.3389 18.1926C47.7403 16.7462 47.4426 15.2073 47.4426 13.5785C47.4426 11.939 47.7385 10.3993 48.3389 8.95371C48.9383 7.51066 49.8249 6.22707 50.9754 5.08187C52.0992 3.96324 53.3807 3.08729 54.849 2.47571C56.3154 1.8649 57.8577 1.56253 59.4669 1.56253C61.0603 1.56253 62.6026 1.8649 64.0795 2.47571C65.5583 3.08729 66.8578 3.9553 67.9845 5.08187C69.1112 6.20839 69.9727 7.49549 70.5739 8.94831C71.1724 10.3948 71.4702 11.939 71.4702 13.5785ZM59.4564 20.3074C61.1547 20.3074 62.5611 19.6728 63.6707 18.4009C64.7829 17.126 65.3375 15.5171 65.3375 13.5785C65.3375 11.6613 64.7777 10.0576 63.6497 8.77209C62.5244 7.48957 61.1233 6.84953 59.4564 6.84953C57.7581 6.84953 56.3533 7.49043 55.2421 8.76679C54.1309 10.0432 53.5753 11.6506 53.5753 13.5785C53.5753 15.5384 54.122 17.1504 55.2159 18.4116C56.3124 19.6758 57.7266 20.3074 59.4564 20.3074ZM81.3908 25.5223H75.6354V1.74496H82.0512C84.5567 1.74496 86.3182 1.86731 87.3348 2.11879C87.9233 2.26434 88.4599 2.47075 88.9454 2.73638L86.3864 7.01334C85.6161 6.72117 83.904 6.67952 82.6173 6.67952H81.3908V12.0627H82.5596C84.0326 12.0627 85.8196 12.0739 86.4012 11.6628C86.9829 11.2518 87.8035 10.3324 87.8035 9.33908C87.8035 8.58441 87.4343 7.90846 86.9992 7.45635L91.5176 5.3983C91.6239 5.59913 91.7219 5.80723 91.8111 6.02264C92.247 7.0742 92.4611 8.23895 92.4611 9.5206C92.4611 10.8878 92.2451 12.0892 91.8164 13.1254C91.3858 14.1663 90.7529 15.0171 89.9136 15.6835C89.2803 16.1864 88.5297 16.5434 87.6702 16.7622C86.8107 16.9811 85.4318 17.0934 83.5399 17.0934H81.3908V25.5223ZM100.658 20.192C101.603 19.7963 102.639 20.9717 103.305 20.9717C104.123 20.9717 104.798 20.746 105.323 20.2988C105.852 19.8489 106.115 19.2841 106.115 18.5952C106.115 17.8368 105.889 17.2493 105.433 16.8382C104.977 16.427 103.95 16.0006 102.346 15.5618C100.144 14.9593 98.5813 14.1692 97.6706 13.2013C96.7573 12.2307 96.3025 10.8996 96.3025 9.21207C96.3025 7.01709 97.0219 5.23474 98.462 3.85024C99.8995 2.46849 101.769 1.77814 104.06 1.77814C105.302 1.77814 106.477 1.94666 107.588 2.28553C108.7 2.62478 109.753 3.13996 110.748 3.82887L107.212 6.54062C106.583 7.02287 105.47 6.37922 104.511 6.48842C103.782 6.57143 103.179 6.66999 102.718 7.02778C102.257 7.38562 102.026 7.8502 102.026 8.41098C102.026 8.98236 102.224 9.44332 102.629 9.78878C103.031 10.1321 103.819 10.4405 104.967 10.7714L105.245 10.8516C107.737 11.5703 109.39 12.2941 110.177 13.1213C110.711 13.6826 111.116 14.36 111.393 15.1453C111.672 15.9353 111.807 16.8061 111.807 17.7674C111.807 20.1973 111.025 22.1505 109.459 23.6259C107.89 25.1037 105.8 25.8421 103.19 25.8421C101.623 25.8421 100.196 25.573 98.9076 25.0304C97.6221 24.4889 96.3863 23.6365 95.2017 22.4777L100.658 20.192Z" fill="#4A4A4A"/>
<path fill-rule="evenodd" clip-rule="evenodd" d="M91.5581 0.226471L87.6951 6.31326L94.3538 3.28022C93.7699 1.74348 92.8733 0.691149 91.5581 0.226471Z" fill="#4A4A4A" stroke="#4A4A4A" stroke-width="0.2" stroke-miterlimit="22.9256"/>
</svg>
